<mxfile host="app.diagrams.net" agent="Mozilla/5.0 (Windows NT 10.0; Win64; x64) AppleWebKit/537.36 (KHTML, like Gecko) Chrome/127.0.0.0 Safari/537.36" version="24.7.6">
  <diagram name="High Level" id="ijDbhC5oZG1Zrlb7tkhO">
    <mxGraphModel dx="1434" dy="858" grid="1" gridSize="10" guides="1" tooltips="1" connect="1" arrows="1" fold="1" page="1" pageScale="1" pageWidth="850" pageHeight="1100" math="0" shadow="0">
      <root>
        <mxCell id="0" />
        <mxCell id="1" parent="0" />
        <mxCell id="ZhxxddU0buV7uyYn70AK-1" value="AWS Cloud" style="sketch=0;outlineConnect=0;gradientColor=none;html=1;whiteSpace=wrap;fontSize=12;fontStyle=0;shape=mxgraph.aws4.group;grIcon=mxgraph.aws4.group_aws_cloud;strokeColor=#AAB7B8;fillColor=none;verticalAlign=top;align=left;spacingLeft=30;fontColor=#AAB7B8;dashed=0;" vertex="1" parent="1">
          <mxGeometry x="280" y="80" width="680" height="430" as="geometry" />
        </mxCell>
        <mxCell id="ZhxxddU0buV7uyYn70AK-2" style="edgeStyle=orthogonalEdgeStyle;rounded=0;orthogonalLoop=1;jettySize=auto;html=1;" edge="1" parent="1" source="ZhxxddU0buV7uyYn70AK-3" target="ZhxxddU0buV7uyYn70AK-17">
          <mxGeometry relative="1" as="geometry" />
        </mxCell>
        <mxCell id="ZhxxddU0buV7uyYn70AK-3" value="Public Data Source" style="verticalLabelPosition=bottom;aspect=fixed;html=1;shape=mxgraph.salesforce.government2;" vertex="1" parent="1">
          <mxGeometry x="150" y="239" width="60" height="60" as="geometry" />
        </mxCell>
        <mxCell id="ZhxxddU0buV7uyYn70AK-4" style="edgeStyle=orthogonalEdgeStyle;rounded=0;orthogonalLoop=1;jettySize=auto;html=1;" edge="1" parent="1" source="ZhxxddU0buV7uyYn70AK-5" target="ZhxxddU0buV7uyYn70AK-9">
          <mxGeometry relative="1" as="geometry" />
        </mxCell>
        <mxCell id="ZhxxddU0buV7uyYn70AK-5" value="Public Data Source" style="verticalLabelPosition=bottom;aspect=fixed;html=1;shape=mxgraph.salesforce.government2;" vertex="1" parent="1">
          <mxGeometry x="150" y="360" width="60" height="60" as="geometry" />
        </mxCell>
        <mxCell id="ZhxxddU0buV7uyYn70AK-6" style="edgeStyle=orthogonalEdgeStyle;rounded=0;orthogonalLoop=1;jettySize=auto;html=1;" edge="1" parent="1" source="ZhxxddU0buV7uyYn70AK-7" target="ZhxxddU0buV7uyYn70AK-26">
          <mxGeometry relative="1" as="geometry" />
        </mxCell>
        <mxCell id="ZhxxddU0buV7uyYn70AK-7" value="" style="sketch=0;outlineConnect=0;fontColor=#232F3E;gradientColor=none;fillColor=#ED7100;strokeColor=none;dashed=0;verticalLabelPosition=bottom;verticalAlign=top;align=center;html=1;fontSize=12;fontStyle=0;aspect=fixed;pointerEvents=1;shape=mxgraph.aws4.lambda_function;" vertex="1" parent="1">
          <mxGeometry x="450" y="240" width="58" height="58" as="geometry" />
        </mxCell>
        <mxCell id="ZhxxddU0buV7uyYn70AK-8" value="S3" style="sketch=0;points=[[0,0,0],[0.25,0,0],[0.5,0,0],[0.75,0,0],[1,0,0],[0,1,0],[0.25,1,0],[0.5,1,0],[0.75,1,0],[1,1,0],[0,0.25,0],[0,0.5,0],[0,0.75,0],[1,0.25,0],[1,0.5,0],[1,0.75,0]];outlineConnect=0;fontColor=#232F3E;fillColor=#7AA116;strokeColor=#ffffff;dashed=0;verticalLabelPosition=bottom;verticalAlign=top;align=center;html=1;fontSize=12;fontStyle=0;aspect=fixed;shape=mxgraph.aws4.resourceIcon;resIcon=mxgraph.aws4.s3;" vertex="1" parent="1">
          <mxGeometry x="560" y="275" width="68" height="68" as="geometry" />
        </mxCell>
        <mxCell id="ZhxxddU0buV7uyYn70AK-9" value="" style="sketch=0;outlineConnect=0;fontColor=#232F3E;gradientColor=none;fillColor=#ED7100;strokeColor=none;dashed=0;verticalLabelPosition=bottom;verticalAlign=top;align=center;html=1;fontSize=12;fontStyle=0;aspect=fixed;pointerEvents=1;shape=mxgraph.aws4.lambda_function;" vertex="1" parent="1">
          <mxGeometry x="330" y="366" width="48" height="48" as="geometry" />
        </mxCell>
        <mxCell id="ZhxxddU0buV7uyYn70AK-10" style="edgeStyle=orthogonalEdgeStyle;rounded=0;orthogonalLoop=1;jettySize=auto;html=1;" edge="1" parent="1" source="ZhxxddU0buV7uyYn70AK-11" target="ZhxxddU0buV7uyYn70AK-8">
          <mxGeometry relative="1" as="geometry" />
        </mxCell>
        <mxCell id="ZhxxddU0buV7uyYn70AK-11" value="Amazon Athena" style="sketch=0;points=[[0,0,0],[0.25,0,0],[0.5,0,0],[0.75,0,0],[1,0,0],[0,1,0],[0.25,1,0],[0.5,1,0],[0.75,1,0],[1,1,0],[0,0.25,0],[0,0.5,0],[0,0.75,0],[1,0.25,0],[1,0.5,0],[1,0.75,0]];outlineConnect=0;fontColor=#232F3E;fillColor=#8C4FFF;strokeColor=#ffffff;dashed=0;verticalLabelPosition=bottom;verticalAlign=top;align=center;html=1;fontSize=12;fontStyle=0;aspect=fixed;shape=mxgraph.aws4.resourceIcon;resIcon=mxgraph.aws4.athena;" vertex="1" parent="1">
          <mxGeometry x="690" y="270" width="78" height="78" as="geometry" />
        </mxCell>
        <mxCell id="ZhxxddU0buV7uyYn70AK-12" value="Data Firehose" style="sketch=0;points=[[0,0,0],[0.25,0,0],[0.5,0,0],[0.75,0,0],[1,0,0],[0,1,0],[0.25,1,0],[0.5,1,0],[0.75,1,0],[1,1,0],[0,0.25,0],[0,0.5,0],[0,0.75,0],[1,0.25,0],[1,0.5,0],[1,0.75,0]];outlineConnect=0;fontColor=#232F3E;fillColor=#8C4FFF;strokeColor=#ffffff;dashed=0;verticalLabelPosition=bottom;verticalAlign=top;align=center;html=1;fontSize=12;fontStyle=0;aspect=fixed;shape=mxgraph.aws4.resourceIcon;resIcon=mxgraph.aws4.kinesis_data_firehose;" vertex="1" parent="1">
          <mxGeometry x="440" y="356" width="68" height="68" as="geometry" />
        </mxCell>
        <mxCell id="ZhxxddU0buV7uyYn70AK-13" style="edgeStyle=orthogonalEdgeStyle;rounded=0;orthogonalLoop=1;jettySize=auto;html=1;startArrow=classic;startFill=1;" edge="1" parent="1" source="ZhxxddU0buV7uyYn70AK-14" target="ZhxxddU0buV7uyYn70AK-11">
          <mxGeometry relative="1" as="geometry" />
        </mxCell>
        <mxCell id="ZhxxddU0buV7uyYn70AK-14" value="Glue Catalog" style="sketch=0;points=[[0,0,0],[0.25,0,0],[0.5,0,0],[0.75,0,0],[1,0,0],[0,1,0],[0.25,1,0],[0.5,1,0],[0.75,1,0],[1,1,0],[0,0.25,0],[0,0.5,0],[0,0.75,0],[1,0.25,0],[1,0.5,0],[1,0.75,0]];outlineConnect=0;fontColor=#232F3E;fillColor=#8C4FFF;strokeColor=#ffffff;dashed=0;verticalLabelPosition=bottom;verticalAlign=top;align=center;html=1;fontSize=12;fontStyle=0;aspect=fixed;shape=mxgraph.aws4.resourceIcon;resIcon=mxgraph.aws4.glue;" vertex="1" parent="1">
          <mxGeometry x="690" y="132" width="78" height="78" as="geometry" />
        </mxCell>
        <mxCell id="ZhxxddU0buV7uyYn70AK-15" style="edgeStyle=orthogonalEdgeStyle;rounded=0;orthogonalLoop=1;jettySize=auto;html=1;entryX=0;entryY=0.5;entryDx=0;entryDy=0;entryPerimeter=0;" edge="1" parent="1" source="ZhxxddU0buV7uyYn70AK-9" target="ZhxxddU0buV7uyYn70AK-12">
          <mxGeometry relative="1" as="geometry" />
        </mxCell>
        <mxCell id="ZhxxddU0buV7uyYn70AK-16" style="edgeStyle=orthogonalEdgeStyle;rounded=0;orthogonalLoop=1;jettySize=auto;html=1;" edge="1" parent="1" source="ZhxxddU0buV7uyYn70AK-17" target="ZhxxddU0buV7uyYn70AK-7">
          <mxGeometry relative="1" as="geometry" />
        </mxCell>
        <mxCell id="ZhxxddU0buV7uyYn70AK-17" value="Step Functions" style="sketch=0;points=[[0,0,0],[0.25,0,0],[0.5,0,0],[0.75,0,0],[1,0,0],[0,1,0],[0.25,1,0],[0.5,1,0],[0.75,1,0],[1,1,0],[0,0.25,0],[0,0.5,0],[0,0.75,0],[1,0.25,0],[1,0.5,0],[1,0.75,0]];outlineConnect=0;fontColor=#232F3E;fillColor=#E7157B;strokeColor=#ffffff;dashed=0;verticalLabelPosition=bottom;verticalAlign=top;align=center;html=1;fontSize=12;fontStyle=0;aspect=fixed;shape=mxgraph.aws4.resourceIcon;resIcon=mxgraph.aws4.step_functions;" vertex="1" parent="1">
          <mxGeometry x="300" y="230" width="78" height="78" as="geometry" />
        </mxCell>
        <mxCell id="ZhxxddU0buV7uyYn70AK-18" style="edgeStyle=orthogonalEdgeStyle;rounded=0;orthogonalLoop=1;jettySize=auto;html=1;" edge="1" parent="1" source="ZhxxddU0buV7uyYn70AK-19" target="ZhxxddU0buV7uyYn70AK-11">
          <mxGeometry relative="1" as="geometry" />
        </mxCell>
        <mxCell id="ZhxxddU0buV7uyYn70AK-19" value="" style="shape=image;verticalLabelPosition=bottom;labelBackgroundColor=default;verticalAlign=top;aspect=fixed;imageAspect=0;image=https://1000logos.net/wp-content/uploads/2022/03/Tableau-Logo.png;imageBorder=default;dashed=1;" vertex="1" parent="1">
          <mxGeometry x="980" y="180" width="160" height="90" as="geometry" />
        </mxCell>
        <mxCell id="ZhxxddU0buV7uyYn70AK-20" style="edgeStyle=orthogonalEdgeStyle;rounded=0;orthogonalLoop=1;jettySize=auto;html=1;entryX=0;entryY=0.5;entryDx=0;entryDy=0;entryPerimeter=0;" edge="1" parent="1" source="ZhxxddU0buV7uyYn70AK-12" target="ZhxxddU0buV7uyYn70AK-8">
          <mxGeometry relative="1" as="geometry" />
        </mxCell>
        <mxCell id="ZhxxddU0buV7uyYn70AK-21" style="edgeStyle=orthogonalEdgeStyle;rounded=0;orthogonalLoop=1;jettySize=auto;html=1;entryX=0;entryY=0.5;entryDx=0;entryDy=0;entryPerimeter=0;" edge="1" parent="1" source="ZhxxddU0buV7uyYn70AK-7" target="ZhxxddU0buV7uyYn70AK-8">
          <mxGeometry relative="1" as="geometry" />
        </mxCell>
        <mxCell id="ZhxxddU0buV7uyYn70AK-22" value="Public APIs" style="sketch=0;points=[[0,0,0],[0.25,0,0],[0.5,0,0],[0.75,0,0],[1,0,0],[0,1,0],[0.25,1,0],[0.5,1,0],[0.75,1,0],[1,1,0],[0,0.25,0],[0,0.5,0],[0,0.75,0],[1,0.25,0],[1,0.5,0],[1,0.75,0]];outlineConnect=0;fontColor=#232F3E;fillColor=#8C4FFF;strokeColor=#ffffff;dashed=0;verticalLabelPosition=bottom;verticalAlign=top;align=center;html=1;fontSize=12;fontStyle=0;aspect=fixed;shape=mxgraph.aws4.resourceIcon;resIcon=mxgraph.aws4.api_gateway;" vertex="1" parent="1">
          <mxGeometry x="840" y="330" width="78" height="78" as="geometry" />
        </mxCell>
        <mxCell id="ZhxxddU0buV7uyYn70AK-23" style="edgeStyle=orthogonalEdgeStyle;rounded=0;orthogonalLoop=1;jettySize=auto;html=1;entryX=1;entryY=0.5;entryDx=0;entryDy=0;entryPerimeter=0;" edge="1" parent="1" source="ZhxxddU0buV7uyYn70AK-22" target="ZhxxddU0buV7uyYn70AK-11">
          <mxGeometry relative="1" as="geometry" />
        </mxCell>
        <mxCell id="ZhxxddU0buV7uyYn70AK-24" value="Clients" style="outlineConnect=0;dashed=0;verticalLabelPosition=bottom;verticalAlign=top;align=center;html=1;shape=mxgraph.aws3.mobile_client;fillColor=#D2D3D3;gradientColor=none;" vertex="1" parent="1">
          <mxGeometry x="1039.75" y="303" width="40.5" height="63" as="geometry" />
        </mxCell>
        <mxCell id="ZhxxddU0buV7uyYn70AK-25" style="edgeStyle=orthogonalEdgeStyle;rounded=0;orthogonalLoop=1;jettySize=auto;html=1;entryX=1;entryY=0.5;entryDx=0;entryDy=0;entryPerimeter=0;" edge="1" parent="1" source="ZhxxddU0buV7uyYn70AK-24" target="ZhxxddU0buV7uyYn70AK-22">
          <mxGeometry relative="1" as="geometry" />
        </mxCell>
        <mxCell id="ZhxxddU0buV7uyYn70AK-26" value="DynamoDB" style="sketch=0;points=[[0,0,0],[0.25,0,0],[0.5,0,0],[0.75,0,0],[1,0,0],[0,1,0],[0.25,1,0],[0.5,1,0],[0.75,1,0],[1,1,0],[0,0.25,0],[0,0.5,0],[0,0.75,0],[1,0.25,0],[1,0.5,0],[1,0.75,0]];outlineConnect=0;fontColor=#232F3E;fillColor=#C925D1;strokeColor=#ffffff;dashed=0;verticalLabelPosition=bottom;verticalAlign=top;align=center;html=1;fontSize=12;fontStyle=0;aspect=fixed;shape=mxgraph.aws4.resourceIcon;resIcon=mxgraph.aws4.dynamodb;" vertex="1" parent="1">
          <mxGeometry x="390" y="110" width="78" height="78" as="geometry" />
        </mxCell>
        <mxCell id="ZhxxddU0buV7uyYn70AK-27" style="edgeStyle=orthogonalEdgeStyle;rounded=0;orthogonalLoop=1;jettySize=auto;html=1;" edge="1" parent="1" source="ZhxxddU0buV7uyYn70AK-28" target="ZhxxddU0buV7uyYn70AK-11">
          <mxGeometry relative="1" as="geometry" />
        </mxCell>
        <mxCell id="ZhxxddU0buV7uyYn70AK-28" value="Bedrock AI" style="sketch=0;points=[[0,0,0],[0.25,0,0],[0.5,0,0],[0.75,0,0],[1,0,0],[0,1,0],[0.25,1,0],[0.5,1,0],[0.75,1,0],[1,1,0],[0,0.25,0],[0,0.5,0],[0,0.75,0],[1,0.25,0],[1,0.5,0],[1,0.75,0]];outlineConnect=0;fontColor=#232F3E;fillColor=#01A88D;strokeColor=#ffffff;dashed=0;verticalLabelPosition=bottom;verticalAlign=top;align=center;html=1;fontSize=12;fontStyle=0;aspect=fixed;shape=mxgraph.aws4.resourceIcon;resIcon=mxgraph.aws4.bedrock;" vertex="1" parent="1">
          <mxGeometry x="700" y="430" width="58" height="58" as="geometry" />
        </mxCell>
      </root>
    </mxGraphModel>
  </diagram>
</mxfile>
